<svg width="16" height="16" viewBox="0 0 16 16" fill="none" xmlns="http://www.w3.org/2000/svg">
<rect width="15" height="15" transform="translate(0.9375 0.5)" fill="#80CE2C"/>
<rect x="0.9375" y="0.5" width="15" height="15" rx="2" fill="#84D52C"/>
<rect x="0.9375" y="0.5" width="15" height="15" rx="2" fill="url(#paint0_linear_6506_54)" fill-opacity="0.2"/>
<path d="M7.09227 11.4503C6.93492 11.4502 6.77914 11.419 6.63392 11.3584C6.48869 11.2978 6.35689 11.2091 6.24609 11.0974L3.98197 8.83328C3.86844 8.72271 3.77801 8.59068 3.71593 8.44487C3.65385 8.29906 3.62135 8.14237 3.62033 7.9839C3.6193 7.82542 3.64977 7.66832 3.70996 7.52172C3.77015 7.37512 3.85887 7.24194 3.97096 7.12991C4.08305 7.01788 4.21628 6.92923 4.36291 6.86911C4.50954 6.809 4.66666 6.77861 4.82513 6.77972C4.9836 6.78083 5.14028 6.81341 5.28606 6.87556C5.43183 6.93772 5.56381 7.02822 5.67433 7.14181L7.09227 8.56063L10.9111 4.74181C11.1355 4.51739 11.4399 4.39131 11.7573 4.39131C12.0746 4.39131 12.379 4.51739 12.6034 4.74181C12.8279 4.96623 12.9539 5.27061 12.9539 5.58799C12.9539 5.90536 12.8279 6.20974 12.6034 6.43416L7.93491 11.0992C7.71148 11.323 7.40852 11.4492 7.09227 11.4503Z" fill="white"/>
<defs>
<linearGradient id="paint0_linear_6506_54" x1="15.9375" y1="0.500002" x2="1.01693" y2="1.39807" gradientUnits="userSpaceOnUse">
<stop stop-color="#6BAB2B"/>
<stop offset="1" stop-color="#84D52C" stop-opacity="0"/>
</linearGradient>
</defs>
</svg>
