<svg width="26" height="17" viewBox="0 0 26 17" fill="none" xmlns="http://www.w3.org/2000/svg">
<path d="M4.26689 8.19659H2.00465V2.26071H0V0.132983H6.26034V2.26071H4.26689V8.19659Z" fill="#84D52C"/>
<path d="M4.26689 8.19659H2.00465V2.26071H0V0.132983H6.26034V2.26071H4.26689V8.19659Z" fill="url(#paint0_linear_6505_704)" fill-opacity="0.2"/>
<path d="M14.2647 8.19659H12.0025V5.1138H9.32585V8.19659H7.06362V0.132983H9.32585V2.98607H12.0025V0.132983H14.2647V8.19659Z" fill="#84D52C"/>
<path d="M14.2647 8.19659H12.0025V5.1138H9.32585V8.19659H7.06362V0.132983H9.32585V2.98607H12.0025V0.132983H14.2647V8.19659Z" fill="url(#paint1_linear_6505_704)" fill-opacity="0.2"/>
<path d="M19.1809 8.34166C18.0012 8.34166 17.0194 7.9548 16.2355 7.18108C15.459 6.3993 15.0708 5.39588 15.0708 4.17083C15.0708 2.93771 15.459 1.9343 16.2355 1.16058C17.012 0.38686 17.9938 0 19.1809 0C20.0768 0 20.7973 0.225668 21.3423 0.677004C21.8948 1.12834 22.3054 1.68445 22.5742 2.34534L20.6256 3.32457C20.5285 3.00219 20.3456 2.72817 20.0768 2.5025C19.808 2.26877 19.5094 2.15191 19.1809 2.15191C18.6433 2.15191 18.2065 2.34534 17.8706 2.7322C17.5346 3.11905 17.3666 3.5986 17.3666 4.17083C17.3666 4.74306 17.5346 5.2226 17.8706 5.60946C18.2065 5.99632 18.6433 6.18975 19.1809 6.18975C19.5094 6.18975 19.808 6.07692 20.0768 5.85125C20.3456 5.61752 20.5285 5.33947 20.6256 5.01708L22.5742 5.98423C22.4548 6.28244 22.3054 6.56049 22.1263 6.8184C21.9471 7.06824 21.7231 7.31406 21.4543 7.55585C21.1855 7.79764 20.8533 7.99107 20.4576 8.13614C20.0693 8.27315 19.6438 8.34166 19.1809 8.34166Z" fill="#84D52C"/>
<path d="M19.1809 8.34166C18.0012 8.34166 17.0194 7.9548 16.2355 7.18108C15.459 6.3993 15.0708 5.39588 15.0708 4.17083C15.0708 2.93771 15.459 1.9343 16.2355 1.16058C17.012 0.38686 17.9938 0 19.1809 0C20.0768 0 20.7973 0.225668 21.3423 0.677004C21.8948 1.12834 22.3054 1.68445 22.5742 2.34534L20.6256 3.32457C20.5285 3.00219 20.3456 2.72817 20.0768 2.5025C19.808 2.26877 19.5094 2.15191 19.1809 2.15191C18.6433 2.15191 18.2065 2.34534 17.8706 2.7322C17.5346 3.11905 17.3666 3.5986 17.3666 4.17083C17.3666 4.74306 17.5346 5.2226 17.8706 5.60946C18.2065 5.99632 18.6433 6.18975 19.1809 6.18975C19.5094 6.18975 19.808 6.07692 20.0768 5.85125C20.3456 5.61752 20.5285 5.33947 20.6256 5.01708L22.5742 5.98423C22.4548 6.28244 22.3054 6.56049 22.1263 6.8184C21.9471 7.06824 21.7231 7.31406 21.4543 7.55585C21.1855 7.79764 20.8533 7.99107 20.4576 8.13614C20.0693 8.27315 19.6438 8.34166 19.1809 8.34166Z" fill="url(#paint2_linear_6505_704)" fill-opacity="0.2"/>
<path d="M16.9961 13.866L19.7513 11.3464L21.1971 12.1439L24.5551 8.01584M22.3725 7.92628L24.8764 8.02903M24.7877 10.112L24.3998 7.58908" stroke="#7ACB22" stroke-width="1.06906"/>
<defs>
<linearGradient id="paint0_linear_6505_704" x1="22.5742" y1="1.03257e-06" x2="0.620651" y2="3.57592" gradientUnits="userSpaceOnUse">
<stop stop-color="#6BAB2B"/>
<stop offset="1" stop-color="#84D52C" stop-opacity="0"/>
</linearGradient>
<linearGradient id="paint1_linear_6505_704" x1="22.5742" y1="1.03257e-06" x2="0.620651" y2="3.57592" gradientUnits="userSpaceOnUse">
<stop stop-color="#6BAB2B"/>
<stop offset="1" stop-color="#84D52C" stop-opacity="0"/>
</linearGradient>
<linearGradient id="paint2_linear_6505_704" x1="22.5742" y1="1.03257e-06" x2="0.620651" y2="3.57592" gradientUnits="userSpaceOnUse">
<stop stop-color="#6BAB2B"/>
<stop offset="1" stop-color="#84D52C" stop-opacity="0"/>
</linearGradient>
</defs>
</svg>
